<svg width="40" height="40" viewBox="0 0 40 40" fill="none" xmlns="http://www.w3.org/2000/svg">
<path d="M30.212 13.656C29.4489 13.9936 28.6396 14.2154 27.811 14.314C28.6841 13.7912 29.3373 12.9688 29.649 12C28.829 12.488 27.93 12.83 26.994 13.015C26.3646 12.3416 25.5304 11.895 24.621 11.7446C23.7116 11.5943 22.7779 11.7485 21.9653 12.1835C21.1526 12.6185 20.5064 13.3097 20.1271 14.1498C19.7478 14.99 19.6568 15.9318 19.868 16.829C18.2049 16.7458 16.578 16.3138 15.0927 15.5609C13.6075 14.808 12.2972 13.7512 11.247 12.459C10.8753 13.0975 10.68 13.8233 10.681 14.562C10.681 16.012 11.42 17.293 12.541 18.043C11.877 18.0221 11.2277 17.8428 10.647 17.52V17.571C10.647 18.5369 10.981 19.4731 11.5925 20.2207C12.204 20.9684 13.0553 21.4815 14.002 21.673C13.3856 21.8403 12.7393 21.8649 12.112 21.745C12.3789 22.5764 12.8992 23.3035 13.6 23.8244C14.3008 24.3454 15.147 24.6341 16.02 24.65C15.1524 25.3315 14.1589 25.8352 13.0964 26.1324C12.0339 26.4296 10.9233 26.5144 9.828 26.382C11.7397 27.6114 13.9651 28.2641 16.238 28.262C23.932 28.262 28.138 21.889 28.138 16.362C28.138 16.182 28.134 16 28.126 15.821C28.9444 15.2294 29.6508 14.4956 30.212 13.656Z" fill="black"/>
</svg>
